<?xml version="1.0" encoding="UTF-8" standalone="no"?><!DOCTYPE svg PUBLIC "-//W3C//DTD SVG 1.1//EN" "http://www.w3.org/Graphics/SVG/1.1/DTD/svg11.dtd"><svg width="100%" height="100%" viewBox="0 0 300 308" version="1.1" xmlns="http://www.w3.org/2000/svg" xmlns:xlink="http://www.w3.org/1999/xlink" xml:space="preserve" style="fill-rule:evenodd;clip-rule:evenodd;stroke-linecap:round;stroke-linejoin:round;stroke-miterlimit:1.5;"><g><path d="M21.289,178.176c0,-0.597 0.484,-1.081 1.081,-1.081c1.349,0 3.685,0 5.406,0c0.573,0 1.123,0.227 1.529,0.633c0.405,0.405 0.633,0.955 0.633,1.529c0,0.695 0,1.466 0,2.162c0,1.194 -0.968,2.162 -2.162,2.162c-1.34,0 -2.959,0 -3.784,0c-0.298,0 -0.54,0.242 -0.54,0.541c0,0.83 0,2.412 0,3.243c0,0.298 -0.242,0.54 -0.541,0.54c-0.831,0 -2.412,0 -3.243,0c-0.144,0 -0.281,-0.057 -0.382,-0.158c-0.102,-0.101 -0.159,-0.239 -0.159,-0.382c0,-1.399 0,-5.161 0,-7.027c0,-0.597 0.484,-1.081 1.081,-1.081c0.188,0 0.376,0 0.541,0c0.298,0 0.54,-0.242 0.54,-0.541c0,-0.165 0,-0.353 0,-0.54Zm2.703,1.081c-0.298,0 -0.54,0.242 -0.54,0.54c0,0.33 0,0.751 0,1.081c0,0.299 0.242,0.541 0.54,0.541c0.33,0 0.751,0 1.081,0c0.299,0 0.541,-0.242 0.541,-0.541c0,-0.33 0,-0.751 0,-1.081c0,-0.298 -0.242,-0.54 -0.541,-0.54c-0.33,0 -0.751,0 -1.081,0Z" style="fill:#fff1e8;"/><path d="M31.019,177.635c0,-0.298 0.242,-0.54 0.541,-0.54c0.825,0 2.443,0 3.783,0c0.574,0 1.124,0.227 1.529,0.633c0.406,0.405 0.634,0.955 0.634,1.529c0,1.982 0,4.782 0,5.946c0,0.298 0.242,0.54 0.54,0.54c0.33,0 0.751,0 1.081,0c0.299,0 0.541,0.242 0.541,0.541c0,0.33 0,0.751 0,1.081c0,0.298 -0.242,0.54 -0.541,0.54c-1.553,0 -6.014,0 -7.567,0c-0.299,0 -0.541,-0.242 -0.541,-0.54c0,-0.33 0,-0.751 0,-1.081c0,-0.299 0.242,-0.541 0.541,-0.541c0.33,0 0.751,0 1.081,0c0.298,0 0.54,-0.242 0.54,-0.54c0,-1.222 0,-4.184 0,-5.406c0,-0.298 -0.242,-0.54 -0.54,-0.54c-0.33,0 -0.751,0 -1.081,0c-0.299,0 -0.541,-0.242 -0.541,-0.541c0,-0.33 0,-0.751 0,-1.081Z" style="fill:#fff1e8;"/><path d="M40.749,183.581c0,-1.194 0.968,-2.162 2.162,-2.162c0.603,0 1.206,0 1.622,0c0.298,0 0.54,-0.242 0.54,-0.541c0,-0.33 0,-0.751 0,-1.081c0,-0.298 -0.242,-0.54 -0.54,-0.54c-0.831,0 -2.413,0 -3.244,0c-0.298,0 -0.54,-0.242 -0.54,-0.541c0,-0.33 0,-0.751 0,-1.081c0,-0.298 0.242,-0.54 0.54,-0.54l5.947,0c0.573,0 1.123,0.227 1.528,0.633c0.406,0.405 0.634,0.955 0.634,1.529l0,2.162c0,1.194 -0.969,2.162 -2.163,2.162c-0.603,0 -1.206,0 -1.621,0c-0.299,0 -0.541,0.242 -0.541,0.541c0,0.33 0,0.751 0,1.081c0,0.298 0.242,0.54 0.541,0.54c0.831,0 2.412,0 3.243,0c0.299,0 0.541,0.242 0.541,0.541c0,0.33 0,0.751 0,1.081c0,0.298 -0.242,0.54 -0.541,0.54c-1.553,0 -6.015,0 -7.568,0c-0.298,0 -0.54,-0.242 -0.54,-0.54c0,-0.825 0,-2.444 0,-3.784Z" style="fill:#fff1e8;"/><path d="M52.641,187.905c-0.574,0 -1.124,-0.227 -1.529,-0.633c-0.406,-0.405 -0.633,-0.955 -0.633,-1.529c0,-1.884 0,-4.602 0,-6.486c0,-1.194 0.968,-2.162 2.162,-2.162c1.089,0 2.362,0 3.243,0c0.597,0 1.081,0.484 1.081,1.081c0,0.187 0,0.375 0,0.54c0,0.299 0.242,0.541 0.541,0.541c0.165,0 0.352,0 0.54,0c0.597,0 1.081,0.484 1.081,1.081c0,1.348 0,3.684 0,5.405c0,0.574 -0.228,1.124 -0.633,1.529c-0.406,0.406 -0.955,0.633 -1.529,0.633c-1.321,0 -3.004,0 -4.324,0Zm0.54,-4.324c-0.298,0 -0.54,0.242 -0.54,0.541c0,0.33 0,0.751 0,1.081c0,0.298 0.242,0.54 0.54,0.54c0.33,0 0.751,0 1.081,0c0.299,0 0.541,-0.242 0.541,-0.54c0,-0.33 0,-0.751 0,-1.081c0,-0.299 -0.242,-0.541 -0.541,-0.541c-0.33,0 -0.751,0 -1.081,0Zm0,-4.324c-0.298,0 -0.54,0.242 -0.54,0.54c0,0.33 0,0.751 0,1.081c0,0.299 0.242,0.541 0.54,0.541c0.33,0 0.751,0 1.081,0c0.299,0 0.541,-0.242 0.541,-0.541c0,-0.33 0,-0.751 0,-1.081c0,-0.298 -0.242,-0.54 -0.541,-0.54c-0.33,0 -0.751,0 -1.081,0Z" style="fill:#fff1e8;"/></g><path d="M279.863,162.5l0.131,0.002l0.13,0.002l0.131,0.003l0.13,0.003l0.13,0.005l0.13,0.005l0.129,0.006l0.129,0.007l0.13,0.008l0.129,0.009l0.128,0.009l0.129,0.01l0.128,0.011l0.128,0.012l0.128,0.013l0.127,0.013l0.128,0.014l0.127,0.015l0.127,0.016l0.126,0.016l0.127,0.018l0.126,0.018l0.126,0.019l0.125,0.019l0.126,0.021l0.125,0.021l0.125,0.022l0.124,0.022l0.125,0.024l0.124,0.024l0.123,0.025l0.124,0.026l0.123,0.026l0.123,0.027l0.123,0.028l0.122,0.029l0.122,0.03l0.122,0.03l0.122,0.031l0.121,0.031l0.121,0.033l0.12,0.033l0.121,0.033l0.12,0.035l0.12,0.035l0.119,0.036l0.119,0.037l0.119,0.037l0.118,0.038l0.119,0.039l0.117,0.04l0.118,0.04l0.117,0.041l0.117,0.041l0.117,0.043l0.116,0.043l0.116,0.043l0.115,0.045l0.116,0.045l0.114,0.046l0.115,0.046l0.114,0.047l0.114,0.048l0.113,0.048l0.114,0.049l0.112,0.05l0.113,0.051l0.112,0.051l0.111,0.051l0.112,0.053l0.111,0.053l0.22,0.108l0.22,0.111l0.217,0.113l0.217,0.116l0.214,0.118l0.213,0.121l0.212,0.123l0.209,0.126l0.208,0.128l0.207,0.131l0.205,0.133l0.203,0.135l0.201,0.138l0.2,0.14l0.197,0.143l0.196,0.145l0.195,0.147l0.192,0.149l0.19,0.152l0.189,0.154l0.187,0.156l0.185,0.158l0.183,0.16l0.181,0.163l0.179,0.165l0.177,0.166l0.175,0.169l0.173,0.171l0.171,0.173l0.169,0.175l0.166,0.177l0.165,0.179l0.163,0.181l0.16,0.183l0.158,0.185l0.156,0.187l0.154,0.189l0.152,0.19l0.149,0.192l0.147,0.195l0.145,0.196l0.143,0.197l0.14,0.2l0.138,0.201l0.135,0.203l0.133,0.205l0.131,0.207l0.128,0.208l0.126,0.209l0.123,0.212l0.121,0.213l0.118,0.214l0.116,0.217l0.113,0.217l0.111,0.22l0.108,0.22l0.053,0.111l0.053,0.112l0.051,0.111l0.051,0.112l0.051,0.113l0.05,0.112l0.049,0.114l0.048,0.113l0.048,0.114l0.047,0.114l0.046,0.115l0.046,0.114l0.045,0.116l0.045,0.115l0.043,0.116l0.043,0.116l0.043,0.117l0.041,0.117l0.041,0.117l0.04,0.117l0.04,0.118l0.039,0.119l0.038,0.118l0.037,0.119l0.037,0.119l0.036,0.119l0.035,0.12l0.035,0.12l0.033,0.121l0.033,0.12l0.033,0.121l0.031,0.121l0.031,0.122l0.03,0.122l0.03,0.122l0.029,0.122l0.028,0.123l0.027,0.123l0.026,0.123l0.026,0.124l0.025,0.123l0.024,0.124l0.024,0.125l0.022,0.124l0.022,0.125l0.021,0.125l0.021,0.126l0.019,0.125l0.019,0.126l0.018,0.126l0.018,0.127l0.016,0.126l0.016,0.127l0.015,0.127l0.014,0.128l0.013,0.127l0.013,0.128l0.012,0.128l0.011,0.128l0.01,0.129l0.009,0.128l0.009,0.129l0.008,0.13l0.007,0.129l0.006,0.129l0.005,0.13l0.005,0.13l0.003,0.13l0.003,0.131l0.002,0.13l0.002,0.131l0,0.131l0,104.064l0,0.131l-0.002,0.131l-0.002,0.13l-0.003,0.131l-0.003,0.13l-0.005,0.13l-0.005,0.13l-0.006,0.129l-0.007,0.13l-0.008,0.129l-0.009,0.129l-0.009,0.129l-0.01,0.128l-0.011,0.128l-0.012,0.128l-0.013,0.128l-0.013,0.128l-0.014,0.127l-0.015,0.127l-0.016,0.127l-0.016,0.127l-0.018,0.126l-0.018,0.126l-0.019,0.126l-0.019,0.126l-0.021,0.125l-0.021,0.125l-0.022,0.125l-0.022,0.124l-0.024,0.125l-0.024,0.124l-0.025,0.124l-0.026,0.123l-0.026,0.123l-0.027,0.123l-0.028,0.123l-0.029,0.122l-0.03,0.123l-0.03,0.121l-0.031,0.122l-0.031,0.121l-0.033,0.121l-0.033,0.121l-0.033,0.12l-0.035,0.12l-0.035,0.12l-0.036,0.119l-0.037,0.119l-0.037,0.119l-0.038,0.119l-0.039,0.118l-0.04,0.118l-0.04,0.117l-0.041,0.117l-0.041,0.117l-0.043,0.117l-0.043,0.116l-0.043,0.116l-0.045,0.116l-0.045,0.115l-0.046,0.115l-0.046,0.114l-0.047,0.114l-0.048,0.114l-0.048,0.114l-0.049,0.113l-0.05,0.113l-0.051,0.112l-0.051,0.112l-0.051,0.112l-0.053,0.111l-0.053,0.111l-0.108,0.221l-0.111,0.219l-0.113,0.218l-0.116,0.216l-0.118,0.214l-0.121,0.213l-0.123,0.212l-0.126,0.21l-0.128,0.208l-0.131,0.206l-0.133,0.205l-0.135,0.203l-0.138,0.201l-0.14,0.2l-0.143,0.198l-0.145,0.196l-0.147,0.194l-0.149,0.192l-0.152,0.191l-0.154,0.188l-0.156,0.187l-0.158,0.185l-0.16,0.183l-0.163,0.181l-0.165,0.179l-0.166,0.177l-0.169,0.175l-0.171,0.173l-0.173,0.171l-0.175,0.169l-0.177,0.167l-0.179,0.164l-0.181,0.163l-0.183,0.16l-0.185,0.158l-0.187,0.157l-0.189,0.153l-0.19,0.152l-0.192,0.149l-0.195,0.147l-0.196,0.145l-0.197,0.143l-0.2,0.14l-0.201,0.138l-0.203,0.135l-0.205,0.133l-0.207,0.131l-0.208,0.128l-0.209,0.126l-0.212,0.123l-0.213,0.121l-0.214,0.118l-0.217,0.116l-0.217,0.114l-0.22,0.11l-0.22,0.108l-0.111,0.053l-0.112,0.053l-0.111,0.052l-0.112,0.051l-0.113,0.05l-0.112,0.05l-0.114,0.049l-0.113,0.048l-0.114,0.048l-0.114,0.047l-0.115,0.047l-0.114,0.045l-0.116,0.045l-0.115,0.045l-0.116,0.044l-0.116,0.043l-0.117,0.042l-0.117,0.041l-0.117,0.041l-0.118,0.041l-0.117,0.039l-0.119,0.039l-0.118,0.038l-0.119,0.037l-0.119,0.037l-0.119,0.036l-0.12,0.035l-0.12,0.035l-0.121,0.034l-0.12,0.033l-0.121,0.032l-0.121,0.032l-0.122,0.031l-0.122,0.03l-0.122,0.029l-0.122,0.029l-0.123,0.028l-0.123,0.027l-0.123,0.026l-0.124,0.026l-0.123,0.025l-0.124,0.024l-0.125,0.024l-0.124,0.022l-0.125,0.022l-0.125,0.022l-0.126,0.02l-0.125,0.02l-0.126,0.018l-0.126,0.018l-0.127,0.018l-0.126,0.016l-0.127,0.016l-0.127,0.015l-0.128,0.014l-0.127,0.014l-0.128,0.012l-0.128,0.012l-0.128,0.011l-0.129,0.01l-0.128,0.009l-0.129,0.009l-0.13,0.008l-0.129,0.007l-0.129,0.006l-0.13,0.005l-0.13,0.005l-0.13,0.004l-0.131,0.003l-0.13,0.002l-0.131,0.001l-0.131,0l-259.464,0l-0.131,0l-0.131,-0.001l-0.13,-0.002l-0.131,-0.003l-0.13,-0.004l-0.13,-0.005l-0.13,-0.005l-0.129,-0.006l-0.129,-0.007l-0.13,-0.008l-0.129,-0.009l-0.128,-0.009l-0.129,-0.01l-0.128,-0.011l-0.128,-0.012l-0.128,-0.012l-0.127,-0.014l-0.128,-0.014l-0.127,-0.015l-0.127,-0.016l-0.126,-0.016l-0.127,-0.018l-0.126,-0.018l-0.126,-0.018l-0.125,-0.02l-0.126,-0.02l-0.125,-0.022l-0.125,-0.022l-0.124,-0.022l-0.125,-0.024l-0.124,-0.024l-0.123,-0.025l-0.124,-0.026l-0.123,-0.026l-0.123,-0.027l-0.123,-0.028l-0.122,-0.029l-0.122,-0.029l-0.122,-0.03l-0.122,-0.031l-0.121,-0.032l-0.121,-0.032l-0.12,-0.033l-0.121,-0.034l-0.12,-0.035l-0.12,-0.035l-0.119,-0.036l-0.119,-0.037l-0.119,-0.037l-0.118,-0.038l-0.119,-0.039l-0.117,-0.039l-0.118,-0.041l-0.117,-0.041l-0.117,-0.041l-0.117,-0.042l-0.116,-0.043l-0.116,-0.044l-0.115,-0.045l-0.116,-0.045l-0.114,-0.045l-0.115,-0.047l-0.114,-0.047l-0.114,-0.048l-0.113,-0.048l-0.114,-0.049l-0.112,-0.05l-0.113,-0.05l-0.112,-0.051l-0.111,-0.052l-0.112,-0.053l-0.111,-0.053l-0.22,-0.108l-0.22,-0.11l-0.217,-0.114l-0.217,-0.116l-0.214,-0.118l-0.213,-0.121l-0.212,-0.123l-0.209,-0.126l-0.208,-0.128l-0.207,-0.131l-0.205,-0.133l-0.203,-0.135l-0.201,-0.138l-0.2,-0.14l-0.197,-0.143l-0.196,-0.145l-0.195,-0.147l-0.192,-0.149l-0.19,-0.152l-0.189,-0.153l-0.187,-0.157l-0.185,-0.158l-0.183,-0.16l-0.181,-0.163l-0.179,-0.164l-0.177,-0.167l-0.175,-0.169l-0.173,-0.171l-0.171,-0.173l-0.169,-0.175l-0.166,-0.177l-0.165,-0.179l-0.163,-0.181l-0.16,-0.183l-0.158,-0.185l-0.156,-0.187l-0.154,-0.188l-0.152,-0.191l-0.149,-0.192l-0.147,-0.194l-0.145,-0.196l-0.143,-0.198l-0.14,-0.2l-0.138,-0.201l-0.135,-0.203l-0.133,-0.205l-0.131,-0.206l-0.128,-0.208l-0.126,-0.21l-0.123,-0.212l-0.121,-0.213l-0.118,-0.214l-0.116,-0.216l-0.113,-0.218l-0.111,-0.219l-0.108,-0.221l-0.053,-0.111l-0.053,-0.111l-0.051,-0.112l-0.051,-0.112l-0.051,-0.112l-0.05,-0.113l-0.049,-0.113l-0.048,-0.114l-0.048,-0.114l-0.047,-0.114l-0.046,-0.114l-0.046,-0.115l-0.045,-0.115l-0.045,-0.116l-0.043,-0.116l-0.043,-0.116l-0.043,-0.117l-0.041,-0.117l-0.041,-0.117l-0.04,-0.117l-0.04,-0.118l-0.039,-0.118l-0.038,-0.119l-0.037,-0.119l-0.037,-0.119l-0.036,-0.119l-0.035,-0.12l-0.035,-0.12l-0.033,-0.12l-0.033,-0.121l-0.033,-0.121l-0.031,-0.121l-0.031,-0.122l-0.03,-0.121l-0.03,-0.123l-0.029,-0.122l-0.028,-0.123l-0.027,-0.123l-0.026,-0.123l-0.026,-0.123l-0.025,-0.124l-0.024,-0.124l-0.024,-0.125l-0.022,-0.124l-0.022,-0.125l-0.021,-0.125l-0.021,-0.125l-0.019,-0.126l-0.019,-0.126l-0.018,-0.126l-0.018,-0.126l-0.016,-0.127l-0.016,-0.127l-0.015,-0.127l-0.014,-0.127l-0.013,-0.128l-0.013,-0.128l-0.012,-0.128l-0.011,-0.128l-0.01,-0.128l-0.009,-0.129l-0.009,-0.129l-0.008,-0.129l-0.007,-0.13l-0.006,-0.129l-0.005,-0.13l-0.005,-0.13l-0.003,-0.13l-0.003,-0.131l-0.002,-0.13l-0.002,-0.131l0,-0.131l0,-104.064l0,-0.131l0.002,-0.131l0.002,-0.13l0.003,-0.131l0.003,-0.13l0.005,-0.13l0.005,-0.13l0.006,-0.129l0.007,-0.129l0.008,-0.13l0.009,-0.129l0.009,-0.128l0.01,-0.129l0.011,-0.128l0.012,-0.128l0.013,-0.128l0.013,-0.127l0.014,-0.128l0.015,-0.127l0.016,-0.127l0.016,-0.126l0.018,-0.127l0.018,-0.126l0.019,-0.126l0.019,-0.125l0.021,-0.126l0.021,-0.125l0.022,-0.125l0.022,-0.124l0.024,-0.125l0.024,-0.124l0.025,-0.123l0.026,-0.124l0.026,-0.123l0.027,-0.123l0.028,-0.123l0.029,-0.122l0.03,-0.122l0.03,-0.122l0.031,-0.122l0.031,-0.121l0.033,-0.121l0.033,-0.12l0.033,-0.121l0.035,-0.12l0.035,-0.12l0.036,-0.119l0.037,-0.119l0.037,-0.119l0.038,-0.118l0.039,-0.119l0.04,-0.118l0.04,-0.117l0.041,-0.117l0.041,-0.117l0.043,-0.117l0.043,-0.116l0.043,-0.116l0.045,-0.115l0.045,-0.116l0.046,-0.114l0.046,-0.115l0.047,-0.114l0.048,-0.114l0.048,-0.113l0.049,-0.114l0.05,-0.112l0.051,-0.113l0.051,-0.112l0.051,-0.111l0.053,-0.112l0.053,-0.111l0.108,-0.22l0.111,-0.22l0.113,-0.217l0.116,-0.217l0.118,-0.214l0.121,-0.213l0.123,-0.212l0.126,-0.209l0.128,-0.208l0.131,-0.207l0.133,-0.205l0.135,-0.203l0.138,-0.201l0.14,-0.2l0.143,-0.197l0.145,-0.196l0.147,-0.195l0.149,-0.192l0.152,-0.19l0.154,-0.189l0.156,-0.187l0.158,-0.185l0.16,-0.183l0.163,-0.181l0.165,-0.179l0.166,-0.177l0.169,-0.175l0.171,-0.173l0.173,-0.171l0.175,-0.169l0.177,-0.166l0.179,-0.165l0.181,-0.163l0.183,-0.16l0.185,-0.158l0.187,-0.156l0.189,-0.154l0.19,-0.152l0.192,-0.149l0.195,-0.147l0.196,-0.145l0.197,-0.143l0.2,-0.14l0.201,-0.138l0.203,-0.135l0.205,-0.133l0.207,-0.131l0.208,-0.128l0.209,-0.126l0.212,-0.123l0.213,-0.121l0.214,-0.118l0.217,-0.116l0.217,-0.113l0.22,-0.111l0.22,-0.108l0.111,-0.053l0.112,-0.053l0.111,-0.051l0.112,-0.051l0.113,-0.051l0.112,-0.05l0.114,-0.049l0.113,-0.048l0.114,-0.048l0.114,-0.047l0.115,-0.046l0.114,-0.046l0.116,-0.045l0.115,-0.045l0.116,-0.043l0.116,-0.043l0.117,-0.043l0.117,-0.041l0.117,-0.041l0.118,-0.04l0.117,-0.04l0.119,-0.039l0.118,-0.038l0.119,-0.037l0.119,-0.037l0.119,-0.036l0.12,-0.035l0.12,-0.035l0.121,-0.033l0.12,-0.033l0.121,-0.033l0.121,-0.031l0.122,-0.031l0.122,-0.03l0.122,-0.03l0.122,-0.029l0.123,-0.028l0.123,-0.027l0.123,-0.026l0.124,-0.026l0.123,-0.025l0.124,-0.024l0.125,-0.024l0.124,-0.022l0.125,-0.022l0.125,-0.021l0.126,-0.021l0.125,-0.019l0.126,-0.019l0.126,-0.018l0.127,-0.018l0.126,-0.016l0.127,-0.016l0.127,-0.015l0.128,-0.014l0.127,-0.013l0.128,-0.013l0.128,-0.012l0.128,-0.011l0.129,-0.01l0.128,-0.009l0.129,-0.009l0.13,-0.008l0.129,-0.007l0.129,-0.006l0.13,-0.005l0.13,-0.005l0.13,-0.003l0.131,-0.003l0.13,-0.002l0.131,-0.002l0.131,0l259.464,0l0.131,0Zm-259.587,5l-0.107,0l-0.1,0.001l-0.098,0.002l-0.099,0.002l-0.099,0.003l-0.098,0.003l-0.097,0.004l-0.098,0.005l-0.098,0.005l-0.098,0.006l-0.098,0.007l-0.096,0.007l-0.097,0.007l-0.097,0.009l-0.097,0.009l-0.096,0.009l-0.097,0.01l-0.095,0.011l-0.096,0.011l-0.096,0.012l-0.095,0.012l-0.094,0.013l-0.096,0.014l-0.095,0.014l-0.094,0.015l-0.094,0.015l-0.095,0.016l-0.094,0.017l-0.093,0.017l-0.093,0.017l-0.094,0.019l-0.093,0.018l-0.093,0.02l-0.093,0.02l-0.092,0.02l-0.092,0.021l-0.092,0.021l-0.092,0.023l-0.092,0.022l-0.09,0.024l-0.092,0.023l-0.091,0.025l-0.09,0.024l-0.091,0.026l-0.09,0.026l-0.089,0.026l-0.09,0.027l-0.09,0.028l-0.089,0.028l-0.089,0.029l-0.089,0.029l-0.088,0.029l-0.089,0.031l-0.088,0.03l-0.088,0.032l-0.087,0.031l-0.088,0.033l-0.087,0.033l-0.086,0.033l-0.087,0.034l-0.087,0.034l-0.086,0.035l-0.085,0.035l-0.086,0.036l-0.086,0.037l-0.084,0.037l-0.085,0.037l-0.085,0.038l-0.084,0.039l-0.084,0.038l-0.083,0.04l-0.077,0.037l-0.173,0.084l-0.165,0.083l-0.164,0.086l-0.163,0.087l-0.162,0.089l-0.16,0.091l-0.159,0.093l-0.158,0.095l-0.157,0.096l-0.155,0.099l-0.155,0.1l-0.153,0.102l-0.152,0.104l-0.15,0.106l-0.149,0.107l-0.148,0.11l-0.147,0.111l-0.145,0.112l-0.144,0.115l-0.142,0.116l-0.141,0.118l-0.14,0.119l-0.138,0.121l-0.136,0.123l-0.136,0.124l-0.133,0.126l-0.132,0.128l-0.131,0.129l-0.129,0.131l-0.128,0.132l-0.126,0.133l-0.124,0.135l-0.123,0.137l-0.121,0.138l-0.119,0.14l-0.118,0.141l-0.116,0.142l-0.115,0.144l-0.113,0.145l-0.111,0.147l-0.109,0.148l-0.107,0.149l-0.106,0.15l-0.104,0.152l-0.102,0.153l-0.1,0.154l-0.099,0.156l-0.096,0.157l-0.095,0.158l-0.093,0.159l-0.091,0.161l-0.089,0.161l-0.087,0.163l-0.086,0.164l-0.083,0.165l-0.085,0.173l-0.036,0.076l-0.04,0.084l-0.038,0.084l-0.039,0.084l-0.038,0.085l-0.037,0.085l-0.037,0.085l-0.037,0.085l-0.036,0.086l-0.035,0.085l-0.035,0.087l-0.034,0.086l-0.034,0.086l-0.033,0.087l-0.033,0.087l-0.033,0.088l-0.031,0.087l-0.032,0.088l-0.03,0.088l-0.031,0.088l-0.029,0.089l-0.029,0.089l-0.029,0.089l-0.028,0.089l-0.028,0.089l-0.027,0.09l-0.026,0.09l-0.026,0.09l-0.026,0.091l-0.024,0.09l-0.025,0.091l-0.023,0.091l-0.024,0.092l-0.022,0.091l-0.022,0.092l-0.022,0.092l-0.021,0.092l-0.02,0.093l-0.02,0.092l-0.02,0.093l-0.018,0.093l-0.019,0.093l-0.017,0.094l-0.017,0.094l-0.017,0.093l-0.016,0.095l-0.015,0.094l-0.015,0.094l-0.014,0.095l-0.014,0.095l-0.013,0.095l-0.012,0.096l-0.012,0.095l-0.011,0.096l-0.011,0.096l-0.01,0.096l-0.009,0.096l-0.009,0.097l-0.009,0.097l-0.007,0.097l-0.007,0.097l-0.007,0.097l-0.006,0.098l-0.005,0.097l-0.005,0.098l-0.004,0.098l-0.003,0.099l-0.003,0.098l-0.002,0.099l-0.002,0.099l-0.001,0.099l0,0.107l0,104.048l0,0.107l0.001,0.099l0.002,0.099l0.002,0.099l0.003,0.098l0.003,0.099l0.004,0.098l0.005,0.098l0.005,0.098l0.006,0.097l0.007,0.098l0.007,0.097l0.007,0.097l0.009,0.096l0.009,0.097l0.009,0.096l0.01,0.096l0.011,0.096l0.011,0.096l0.012,0.096l0.012,0.095l0.013,0.095l0.014,0.095l0.014,0.095l0.015,0.094l0.015,0.095l0.016,0.094l0.017,0.094l0.017,0.094l0.017,0.093l0.019,0.093l0.018,0.093l0.02,0.093l0.02,0.093l0.02,0.092l0.021,0.092l0.022,0.092l0.022,0.092l0.022,0.092l0.024,0.091l0.023,0.091l0.025,0.091l0.024,0.09l0.026,0.091l0.026,0.09l0.026,0.09l0.027,0.09l0.028,0.089l0.028,0.089l0.029,0.089l0.029,0.089l0.029,0.089l0.031,0.088l0.03,0.088l0.032,0.088l0.031,0.088l0.033,0.087l0.033,0.087l0.033,0.087l0.034,0.086l0.034,0.087l0.035,0.086l0.035,0.086l0.036,0.085l0.037,0.086l0.037,0.085l0.037,0.084l0.038,0.085l0.039,0.084l0.039,0.084l0.039,0.084l0.036,0.076l0.085,0.174l0.083,0.164l0.086,0.164l0.087,0.163l0.089,0.162l0.091,0.16l0.093,0.159l0.095,0.158l0.096,0.157l0.099,0.156l0.1,0.154l0.102,0.153l0.104,0.152l0.106,0.15l0.107,0.15l0.11,0.148l0.111,0.146l0.112,0.145l0.115,0.144l0.116,0.142l0.118,0.141l0.119,0.14l0.121,0.138l0.123,0.137l0.124,0.135l0.126,0.134l0.128,0.132l0.129,0.131l0.13,0.128l0.133,0.128l0.133,0.126l0.135,0.124l0.137,0.123l0.138,0.121l0.14,0.12l0.141,0.117l0.142,0.116l0.144,0.115l0.145,0.113l0.147,0.111l0.147,0.109l0.15,0.107l0.15,0.106l0.152,0.104l0.153,0.102l0.155,0.1l0.155,0.099l0.157,0.097l0.158,0.094l0.159,0.093l0.161,0.091l0.161,0.089l0.163,0.088l0.164,0.085l0.165,0.083l0.173,0.085l0.076,0.036l0.084,0.04l0.084,0.039l0.085,0.038l0.084,0.038l0.085,0.037l0.084,0.037l0.086,0.037l0.085,0.036l0.086,0.035l0.087,0.035l0.086,0.034l0.086,0.034l0.088,0.034l0.087,0.033l0.087,0.032l0.087,0.031l0.088,0.032l0.088,0.031l0.088,0.03l0.089,0.029l0.089,0.03l0.089,0.028l0.089,0.028l0.089,0.028l0.09,0.027l0.091,0.026l0.09,0.026l0.09,0.026l0.09,0.025l0.091,0.024l0.092,0.024l0.091,0.023l0.091,0.022l0.092,0.023l0.092,0.021l0.092,0.021l0.092,0.021l0.093,0.02l0.093,0.019l0.093,0.019l0.093,0.018l0.094,0.017l0.094,0.018l0.093,0.016l0.094,0.016l0.095,0.015l0.095,0.015l0.094,0.014l0.095,0.014l0.096,0.013l0.094,0.012l0.096,0.012l0.096,0.011l0.096,0.011l0.096,0.01l0.096,0.01l0.096,0.008l0.098,0.009l0.097,0.008l0.096,0.007l0.098,0.006l0.098,0.006l0.098,0.005l0.097,0.005l0.098,0.004l0.099,0.003l0.098,0.003l0.099,0.002l0.099,0.002l0.099,0.001l0.107,0l259.448,0l0.107,0l0.099,-0.001l0.099,-0.002l0.099,-0.002l0.098,-0.003l0.099,-0.003l0.098,-0.004l0.097,-0.005l0.098,-0.005l0.098,-0.006l0.098,-0.006l0.096,-0.007l0.097,-0.008l0.098,-0.009l0.096,-0.008l0.096,-0.01l0.096,-0.01l0.096,-0.011l0.096,-0.011l0.096,-0.012l0.094,-0.012l0.096,-0.013l0.095,-0.014l0.094,-0.014l0.095,-0.015l0.095,-0.015l0.094,-0.016l0.093,-0.016l0.094,-0.018l0.094,-0.017l0.093,-0.018l0.093,-0.019l0.093,-0.019l0.092,-0.02l0.093,-0.021l0.092,-0.021l0.092,-0.021l0.092,-0.023l0.091,-0.022l0.091,-0.023l0.092,-0.024l0.091,-0.024l0.09,-0.025l0.09,-0.026l0.091,-0.026l0.09,-0.026l0.09,-0.027l0.089,-0.028l0.089,-0.028l0.089,-0.028l0.089,-0.03l0.089,-0.029l0.087,-0.03l0.089,-0.031l0.088,-0.032l0.087,-0.031l0.087,-0.032l0.087,-0.033l0.088,-0.034l0.086,-0.034l0.086,-0.034l0.087,-0.035l0.086,-0.035l0.085,-0.036l0.086,-0.037l0.084,-0.036l0.085,-0.038l0.084,-0.038l0.085,-0.038l0.084,-0.039l0.084,-0.04l0.076,-0.036l0.173,-0.085l0.165,-0.083l0.164,-0.085l0.163,-0.088l0.161,-0.089l0.161,-0.091l0.159,-0.093l0.158,-0.094l0.157,-0.097l0.156,-0.099l0.154,-0.1l0.153,-0.102l0.152,-0.104l0.15,-0.106l0.15,-0.107l0.147,-0.109l0.147,-0.111l0.145,-0.113l0.144,-0.115l0.142,-0.116l0.141,-0.117l0.14,-0.12l0.138,-0.121l0.137,-0.123l0.135,-0.124l0.133,-0.126l0.132,-0.127l0.131,-0.129l0.129,-0.131l0.128,-0.132l0.126,-0.134l0.124,-0.135l0.123,-0.137l0.121,-0.138l0.119,-0.139l0.118,-0.142l0.116,-0.142l0.115,-0.144l0.112,-0.145l0.111,-0.146l0.11,-0.149l0.107,-0.149l0.106,-0.15l0.104,-0.152l0.102,-0.153l0.1,-0.154l0.099,-0.156l0.096,-0.157l0.095,-0.158l0.093,-0.159l0.091,-0.16l0.089,-0.162l0.087,-0.163l0.086,-0.164l0.083,-0.165l0.084,-0.172l0.037,-0.077l0.04,-0.084l0.038,-0.083l0.039,-0.085l0.038,-0.085l0.037,-0.084l0.037,-0.085l0.037,-0.086l0.036,-0.086l0.035,-0.085l0.035,-0.086l0.034,-0.087l0.034,-0.087l0.033,-0.086l0.033,-0.087l0.032,-0.087l0.032,-0.088l0.032,-0.088l0.03,-0.088l0.031,-0.089l0.029,-0.087l0.029,-0.09l0.029,-0.089l0.028,-0.089l0.028,-0.09l0.027,-0.089l0.026,-0.09l0.026,-0.09l0.026,-0.091l0.024,-0.09l0.025,-0.091l0.023,-0.091l0.024,-0.091l0.022,-0.092l0.023,-0.092l0.021,-0.091l0.021,-0.093l0.02,-0.092l0.02,-0.093l0.02,-0.093l0.018,-0.092l0.019,-0.095l0.017,-0.093l0.017,-0.093l0.017,-0.094l0.016,-0.095l0.015,-0.094l0.015,-0.094l0.014,-0.095l0.014,-0.095l0.013,-0.095l0.012,-0.095l0.012,-0.096l0.011,-0.095l0.011,-0.096l0.01,-0.097l0.009,-0.096l0.009,-0.097l0.009,-0.097l0.007,-0.096l0.007,-0.097l0.007,-0.097l0.006,-0.099l0.005,-0.097l0.005,-0.098l0.004,-0.098l0.003,-0.098l0.003,-0.099l0.002,-0.099l0.002,-0.098l0.001,-0.099l0,-0.108l0,-104.048l0,-0.107l-0.001,-0.1l-0.002,-0.098l-0.002,-0.099l-0.003,-0.099l-0.003,-0.098l-0.004,-0.097l-0.005,-0.098l-0.005,-0.098l-0.006,-0.098l-0.007,-0.098l-0.007,-0.096l-0.007,-0.097l-0.009,-0.097l-0.009,-0.097l-0.009,-0.096l-0.01,-0.097l-0.011,-0.095l-0.011,-0.096l-0.012,-0.096l-0.012,-0.095l-0.013,-0.094l-0.014,-0.096l-0.014,-0.095l-0.015,-0.094l-0.015,-0.094l-0.016,-0.095l-0.017,-0.094l-0.017,-0.093l-0.017,-0.093l-0.019,-0.094l-0.018,-0.093l-0.02,-0.093l-0.02,-0.093l-0.02,-0.092l-0.021,-0.092l-0.021,-0.092l-0.023,-0.091l-0.023,-0.093l-0.023,-0.09l-0.023,-0.092l-0.025,-0.091l-0.024,-0.09l-0.026,-0.091l-0.026,-0.09l-0.026,-0.089l-0.027,-0.09l-0.028,-0.09l-0.028,-0.089l-0.029,-0.089l-0.029,-0.089l-0.029,-0.088l-0.031,-0.089l-0.03,-0.088l-0.032,-0.088l-0.032,-0.087l-0.032,-0.088l-0.033,-0.087l-0.033,-0.086l-0.034,-0.087l-0.034,-0.087l-0.035,-0.086l-0.035,-0.085l-0.036,-0.086l-0.037,-0.086l-0.037,-0.084l-0.037,-0.085l-0.038,-0.085l-0.039,-0.084l-0.038,-0.084l-0.04,-0.083l-0.037,-0.077l-0.084,-0.173l-0.083,-0.165l-0.086,-0.164l-0.087,-0.163l-0.089,-0.162l-0.091,-0.16l-0.093,-0.159l-0.095,-0.158l-0.096,-0.157l-0.099,-0.156l-0.1,-0.154l-0.102,-0.153l-0.104,-0.152l-0.106,-0.15l-0.107,-0.149l-0.11,-0.148l-0.111,-0.147l-0.112,-0.145l-0.115,-0.144l-0.116,-0.142l-0.118,-0.141l-0.119,-0.14l-0.121,-0.138l-0.123,-0.137l-0.124,-0.135l-0.126,-0.133l-0.128,-0.132l-0.129,-0.131l-0.131,-0.129l-0.132,-0.128l-0.133,-0.125l-0.135,-0.125l-0.137,-0.123l-0.138,-0.121l-0.14,-0.119l-0.141,-0.118l-0.142,-0.116l-0.144,-0.115l-0.145,-0.112l-0.147,-0.111l-0.148,-0.11l-0.149,-0.107l-0.15,-0.106l-0.152,-0.104l-0.153,-0.102l-0.154,-0.1l-0.156,-0.099l-0.157,-0.096l-0.158,-0.095l-0.159,-0.093l-0.16,-0.091l-0.162,-0.089l-0.163,-0.087l-0.164,-0.086l-0.165,-0.083l-0.173,-0.084l-0.077,-0.037l-0.083,-0.04l-0.084,-0.038l-0.084,-0.039l-0.085,-0.038l-0.085,-0.037l-0.084,-0.037l-0.086,-0.037l-0.086,-0.036l-0.085,-0.035l-0.086,-0.035l-0.087,-0.034l-0.087,-0.034l-0.086,-0.033l-0.087,-0.033l-0.088,-0.032l-0.087,-0.032l-0.088,-0.032l-0.088,-0.03l-0.089,-0.031l-0.088,-0.029l-0.089,-0.029l-0.089,-0.029l-0.089,-0.028l-0.09,-0.028l-0.09,-0.027l-0.089,-0.026l-0.09,-0.026l-0.091,-0.026l-0.09,-0.024l-0.091,-0.025l-0.092,-0.023l-0.09,-0.023l-0.093,-0.023l-0.091,-0.023l-0.092,-0.021l-0.092,-0.021l-0.093,-0.02l-0.092,-0.02l-0.093,-0.02l-0.093,-0.018l-0.094,-0.019l-0.093,-0.017l-0.093,-0.017l-0.094,-0.017l-0.095,-0.016l-0.094,-0.015l-0.094,-0.015l-0.095,-0.014l-0.096,-0.014l-0.094,-0.013l-0.095,-0.012l-0.096,-0.012l-0.096,-0.011l-0.095,-0.011l-0.097,-0.01l-0.096,-0.009l-0.097,-0.009l-0.097,-0.009l-0.097,-0.007l-0.096,-0.007l-0.098,-0.007l-0.098,-0.006l-0.098,-0.005l-0.098,-0.005l-0.097,-0.004l-0.098,-0.003l-0.099,-0.003l-0.099,-0.002l-0.098,-0.002l-0.1,-0.001l-0.107,0l-259.448,0Z" style="fill:#fff1e8;"/><path d="M68.395,202.5l0.062,0.002l0.062,0.001l0.062,0.003l0.062,0.004l0.062,0.004l0.061,0.005l0.062,0.005l0.061,0.007l0.061,0.007l0.061,0.008l0.061,0.009l0.06,0.009l0.061,0.01l0.06,0.011l0.06,0.012l0.06,0.012l0.06,0.013l0.119,0.029l0.118,0.031l0.118,0.034l0.116,0.037l0.115,0.04l0.115,0.042l0.113,0.046l0.112,0.048l0.111,0.05l0.109,0.054l0.109,0.056l0.107,0.059l0.105,0.061l0.105,0.064l0.051,0.033l0.051,0.034l0.051,0.034l0.05,0.035l0.05,0.036l0.05,0.036l0.049,0.037l0.049,0.037l0.048,0.039l0.048,0.038l0.048,0.04l0.047,0.04l0.046,0.04l0.046,0.041l0.046,0.042l0.045,0.043l0.045,0.043l0.044,0.043l0.044,0.045l0.043,0.044l0.042,0.046l0.042,0.045l0.041,0.046l0.041,0.047l0.04,0.047l0.039,0.047l0.039,0.048l0.038,0.048l0.037,0.049l0.037,0.049l0.036,0.05l0.036,0.05l0.035,0.05l0.034,0.051l0.034,0.051l0.033,0.052l0.064,0.104l0.061,0.106l0.059,0.107l0.056,0.108l0.054,0.11l0.051,0.11l0.048,0.113l0.045,0.113l0.043,0.114l0.039,0.115l0.037,0.117l0.034,0.117l0.032,0.118l0.028,0.119l0.013,0.06l0.012,0.06l0.012,0.06l0.011,0.06l0.01,0.061l0.01,0.061l0.008,0.06l0.008,0.061l0.007,0.062l0.007,0.061l0.006,0.061l0.005,0.062l0.004,0.061l0.003,0.062l0.003,0.062l0.002,0.062l0.001,0.062l0,0.062l0,21.667l19.921,0l0.063,0l0.062,0.001l0.062,0.002l0.061,0.003l0.062,0.003l0.062,0.004l0.061,0.005l0.062,0.006l0.061,0.007l0.061,0.007l0.061,0.008l0.061,0.008l0.061,0.01l0.06,0.01l0.06,0.011l0.061,0.012l0.059,0.012l0.06,0.013l0.119,0.028l0.118,0.032l0.118,0.034l0.116,0.037l0.115,0.039l0.115,0.043l0.113,0.045l0.112,0.048l0.111,0.051l0.11,0.054l0.108,0.056l0.107,0.059l0.106,0.061l0.104,0.064l0.051,0.033l0.052,0.034l0.05,0.034l0.051,0.035l0.05,0.036l0.049,0.036l0.049,0.037l0.049,0.037l0.048,0.038l0.048,0.039l0.048,0.039l0.047,0.04l0.046,0.041l0.046,0.041l0.046,0.042l0.045,0.042l0.045,0.043l0.044,0.044l0.044,0.044l0.043,0.045l0.042,0.045l0.042,0.046l0.041,0.046l0.041,0.046l0.04,0.047l0.039,0.048l0.039,0.048l0.038,0.048l0.038,0.049l0.036,0.049l0.037,0.05l0.035,0.05l0.035,0.05l0.034,0.051l0.034,0.051l0.033,0.051l0.064,0.105l0.062,0.105l0.058,0.107l0.057,0.109l0.053,0.109l0.051,0.111l0.048,0.112l0.045,0.113l0.043,0.115l0.039,0.115l0.037,0.116l0.034,0.118l0.032,0.118l0.028,0.119l0.013,0.06l0.013,0.06l0.011,0.06l0.011,0.06l0.01,0.061l0.01,0.06l0.008,0.061l0.008,0.061l0.008,0.061l0.006,0.061l0.006,0.062l0.005,0.061l0.004,0.062l0.003,0.062l0.003,0.062l0.002,0.062l0.001,0.062l0.001,0.062l0,16.666l-0.001,0.062l-0.001,0.062l-0.002,0.062l-0.003,0.062l-0.003,0.062l-0.004,0.062l-0.005,0.061l-0.006,0.062l-0.006,0.061l-0.008,0.061l-0.008,0.061l-0.008,0.061l-0.01,0.06l-0.01,0.061l-0.011,0.06l-0.011,0.06l-0.013,0.06l-0.013,0.06l-0.028,0.119l-0.032,0.118l-0.034,0.118l-0.037,0.116l-0.039,0.115l-0.043,0.115l-0.045,0.113l-0.048,0.112l-0.051,0.111l-0.053,0.109l-0.057,0.109l-0.058,0.107l-0.062,0.105l-0.064,0.105l-0.033,0.051l-0.034,0.051l-0.034,0.051l-0.035,0.05l-0.035,0.05l-0.037,0.05l-0.036,0.049l-0.038,0.049l-0.038,0.048l-0.039,0.048l-0.039,0.048l-0.04,0.047l-0.041,0.046l-0.041,0.046l-0.042,0.046l-0.042,0.045l-0.043,0.045l-0.044,0.044l-0.044,0.044l-0.045,0.043l-0.045,0.042l-0.046,0.042l-0.046,0.041l-0.046,0.041l-0.047,0.04l-0.048,0.039l-0.048,0.039l-0.048,0.038l-0.049,0.037l-0.049,0.037l-0.049,0.036l-0.05,0.036l-0.051,0.035l-0.05,0.034l-0.052,0.034l-0.051,0.033l-0.104,0.064l-0.106,0.061l-0.107,0.059l-0.108,0.056l-0.11,0.054l-0.111,0.051l-0.112,0.048l-0.113,0.045l-0.115,0.043l-0.115,0.039l-0.116,0.037l-0.118,0.034l-0.118,0.032l-0.119,0.028l-0.06,0.013l-0.059,0.012l-0.061,0.012l-0.06,0.011l-0.06,0.01l-0.061,0.01l-0.061,0.008l-0.061,0.008l-0.061,0.007l-0.061,0.007l-0.062,0.006l-0.061,0.005l-0.062,0.004l-0.062,0.003l-0.061,0.003l-0.062,0.002l-0.062,0.001l-0.063,0l-19.921,0l0,21.667l0,0.062l-0.001,0.062l-0.002,0.062l-0.003,0.062l-0.003,0.062l-0.004,0.061l-0.005,0.062l-0.006,0.061l-0.007,0.061l-0.007,0.062l-0.008,0.061l-0.008,0.06l-0.01,0.061l-0.01,0.061l-0.011,0.06l-0.012,0.06l-0.012,0.06l-0.013,0.06l-0.028,0.119l-0.032,0.118l-0.034,0.117l-0.037,0.117l-0.039,0.115l-0.043,0.114l-0.045,0.113l-0.048,0.113l-0.051,0.11l-0.054,0.11l-0.056,0.108l-0.059,0.107l-0.061,0.106l-0.064,0.104l-0.033,0.052l-0.034,0.051l-0.034,0.051l-0.035,0.05l-0.036,0.05l-0.036,0.05l-0.037,0.049l-0.037,0.049l-0.038,0.048l-0.039,0.048l-0.039,0.047l-0.04,0.047l-0.041,0.047l-0.041,0.046l-0.042,0.045l-0.042,0.046l-0.043,0.044l-0.044,0.045l-0.044,0.043l-0.045,0.043l-0.045,0.043l-0.046,0.042l-0.046,0.041l-0.046,0.04l-0.047,0.04l-0.048,0.04l-0.048,0.038l-0.048,0.039l-0.049,0.037l-0.049,0.037l-0.05,0.036l-0.05,0.036l-0.05,0.035l-0.051,0.034l-0.051,0.034l-0.051,0.033l-0.105,0.064l-0.105,0.061l-0.107,0.059l-0.109,0.056l-0.109,0.054l-0.111,0.05l-0.112,0.048l-0.113,0.046l-0.115,0.042l-0.115,0.04l-0.116,0.037l-0.118,0.034l-0.118,0.031l-0.119,0.029l-0.06,0.013l-0.06,0.012l-0.06,0.012l-0.06,0.011l-0.061,0.01l-0.06,0.009l-0.061,0.009l-0.061,0.008l-0.061,0.007l-0.061,0.007l-0.062,0.005l-0.061,0.005l-0.062,0.004l-0.062,0.004l-0.062,0.003l-0.062,0.001l-0.062,0.002l-0.062,0l-16.666,0l-0.062,0l-0.062,-0.002l-0.062,-0.001l-0.062,-0.003l-0.062,-0.004l-0.062,-0.004l-0.061,-0.005l-0.062,-0.005l-0.061,-0.007l-0.061,-0.007l-0.061,-0.008l-0.061,-0.009l-0.06,-0.009l-0.061,-0.01l-0.06,-0.011l-0.06,-0.012l-0.06,-0.012l-0.06,-0.013l-0.119,-0.029l-0.118,-0.031l-0.118,-0.034l-0.116,-0.037l-0.115,-0.04l-0.115,-0.042l-0.113,-0.046l-0.112,-0.048l-0.111,-0.05l-0.109,-0.054l-0.109,-0.056l-0.107,-0.059l-0.105,-0.061l-0.105,-0.064l-0.051,-0.033l-0.051,-0.034l-0.051,-0.034l-0.05,-0.035l-0.05,-0.036l-0.05,-0.036l-0.049,-0.037l-0.049,-0.037l-0.048,-0.039l-0.048,-0.038l-0.048,-0.04l-0.047,-0.04l-0.046,-0.04l-0.046,-0.041l-0.046,-0.042l-0.045,-0.043l-0.045,-0.043l-0.044,-0.043l-0.044,-0.045l-0.043,-0.044l-0.042,-0.046l-0.042,-0.045l-0.041,-0.046l-0.041,-0.047l-0.04,-0.047l-0.039,-0.047l-0.039,-0.048l-0.038,-0.048l-0.037,-0.049l-0.037,-0.049l-0.036,-0.05l-0.036,-0.05l-0.035,-0.05l-0.034,-0.051l-0.034,-0.051l-0.033,-0.052l-0.064,-0.104l-0.061,-0.106l-0.059,-0.107l-0.056,-0.108l-0.054,-0.11l-0.051,-0.11l-0.048,-0.113l-0.045,-0.113l-0.043,-0.114l-0.039,-0.115l-0.037,-0.117l-0.034,-0.117l-0.032,-0.118l-0.028,-0.119l-0.013,-0.06l-0.012,-0.06l-0.012,-0.06l-0.011,-0.06l-0.01,-0.061l-0.01,-0.061l-0.008,-0.06l-0.008,-0.061l-0.007,-0.062l-0.007,-0.061l-0.006,-0.061l-0.005,-0.062l-0.004,-0.061l-0.003,-0.062l-0.003,-0.062l-0.002,-0.062l-0.001,-0.062l0,-0.062l0,-21.667l-21.667,0l-0.062,0l-0.062,-0.001l-0.062,-0.002l-0.062,-0.003l-0.062,-0.003l-0.061,-0.004l-0.062,-0.005l-0.061,-0.006l-0.061,-0.007l-0.062,-0.007l-0.061,-0.008l-0.06,-0.008l-0.061,-0.01l-0.061,-0.01l-0.06,-0.011l-0.06,-0.012l-0.06,-0.012l-0.06,-0.013l-0.119,-0.028l-0.118,-0.032l-0.117,-0.034l-0.117,-0.037l-0.115,-0.039l-0.114,-0.043l-0.113,-0.045l-0.113,-0.048l-0.11,-0.051l-0.11,-0.054l-0.108,-0.056l-0.107,-0.059l-0.106,-0.061l-0.104,-0.064l-0.052,-0.033l-0.051,-0.034l-0.051,-0.034l-0.05,-0.035l-0.05,-0.036l-0.05,-0.036l-0.049,-0.037l-0.049,-0.037l-0.048,-0.038l-0.048,-0.039l-0.047,-0.039l-0.047,-0.04l-0.047,-0.041l-0.046,-0.041l-0.045,-0.042l-0.046,-0.042l-0.044,-0.043l-0.045,-0.044l-0.043,-0.044l-0.043,-0.045l-0.043,-0.045l-0.042,-0.046l-0.041,-0.046l-0.04,-0.046l-0.04,-0.047l-0.04,-0.048l-0.038,-0.048l-0.039,-0.048l-0.037,-0.049l-0.037,-0.049l-0.036,-0.05l-0.036,-0.05l-0.035,-0.05l-0.034,-0.051l-0.034,-0.051l-0.033,-0.051l-0.064,-0.105l-0.061,-0.105l-0.059,-0.107l-0.056,-0.109l-0.054,-0.109l-0.05,-0.111l-0.048,-0.112l-0.046,-0.113l-0.042,-0.115l-0.04,-0.115l-0.037,-0.116l-0.034,-0.118l-0.031,-0.118l-0.029,-0.119l-0.013,-0.06l-0.012,-0.06l-0.012,-0.06l-0.011,-0.06l-0.01,-0.061l-0.009,-0.06l-0.009,-0.061l-0.008,-0.061l-0.007,-0.061l-0.007,-0.061l-0.005,-0.062l-0.005,-0.061l-0.004,-0.062l-0.004,-0.062l-0.003,-0.062l-0.001,-0.062l-0.002,-0.062l0,-0.062l0,-16.666l0,-0.062l0.002,-0.062l0.001,-0.062l0.003,-0.062l0.004,-0.062l0.004,-0.062l0.005,-0.061l0.005,-0.062l0.007,-0.061l0.007,-0.061l0.008,-0.061l0.009,-0.061l0.009,-0.06l0.01,-0.061l0.011,-0.06l0.012,-0.06l0.012,-0.06l0.013,-0.06l0.029,-0.119l0.031,-0.118l0.034,-0.118l0.037,-0.116l0.04,-0.115l0.042,-0.115l0.046,-0.113l0.048,-0.112l0.05,-0.111l0.054,-0.109l0.056,-0.109l0.059,-0.107l0.061,-0.105l0.064,-0.105l0.033,-0.051l0.034,-0.051l0.034,-0.051l0.035,-0.05l0.036,-0.05l0.036,-0.05l0.037,-0.049l0.037,-0.049l0.039,-0.048l0.038,-0.048l0.04,-0.048l0.04,-0.047l0.04,-0.046l0.041,-0.046l0.042,-0.046l0.043,-0.045l0.043,-0.045l0.043,-0.044l0.045,-0.044l0.044,-0.043l0.046,-0.042l0.045,-0.042l0.046,-0.041l0.047,-0.041l0.047,-0.04l0.047,-0.039l0.048,-0.039l0.048,-0.038l0.049,-0.037l0.049,-0.037l0.05,-0.036l0.05,-0.036l0.05,-0.035l0.051,-0.034l0.051,-0.034l0.052,-0.033l0.104,-0.064l0.106,-0.061l0.107,-0.059l0.108,-0.056l0.11,-0.054l0.11,-0.051l0.113,-0.048l0.113,-0.045l0.114,-0.043l0.115,-0.039l0.117,-0.037l0.117,-0.034l0.118,-0.032l0.119,-0.028l0.06,-0.013l0.06,-0.012l0.06,-0.012l0.06,-0.011l0.061,-0.01l0.061,-0.01l0.06,-0.008l0.061,-0.008l0.062,-0.007l0.061,-0.007l0.061,-0.006l0.062,-0.005l0.061,-0.004l0.062,-0.003l0.062,-0.003l0.062,-0.002l0.062,-0.001l0.062,0l21.667,0l0,-21.667l0,-0.062l0.001,-0.062l0.002,-0.062l0.003,-0.062l0.003,-0.062l0.004,-0.061l0.005,-0.062l0.006,-0.061l0.007,-0.061l0.007,-0.062l0.008,-0.061l0.008,-0.06l0.01,-0.061l0.01,-0.061l0.011,-0.06l0.012,-0.06l0.012,-0.06l0.013,-0.06l0.028,-0.119l0.032,-0.118l0.034,-0.117l0.037,-0.117l0.039,-0.115l0.043,-0.114l0.045,-0.113l0.048,-0.113l0.051,-0.11l0.054,-0.11l0.056,-0.108l0.059,-0.107l0.061,-0.106l0.064,-0.104l0.033,-0.052l0.034,-0.051l0.034,-0.051l0.035,-0.05l0.036,-0.05l0.036,-0.05l0.037,-0.049l0.037,-0.049l0.038,-0.048l0.039,-0.048l0.039,-0.047l0.04,-0.047l0.041,-0.047l0.041,-0.046l0.042,-0.045l0.042,-0.046l0.043,-0.044l0.044,-0.045l0.044,-0.043l0.045,-0.043l0.045,-0.043l0.046,-0.042l0.046,-0.041l0.046,-0.04l0.047,-0.04l0.048,-0.04l0.048,-0.038l0.048,-0.039l0.049,-0.037l0.049,-0.037l0.05,-0.036l0.05,-0.036l0.05,-0.035l0.051,-0.034l0.051,-0.034l0.051,-0.033l0.105,-0.064l0.105,-0.061l0.107,-0.059l0.109,-0.056l0.109,-0.054l0.111,-0.05l0.112,-0.048l0.113,-0.046l0.115,-0.042l0.115,-0.04l0.116,-0.037l0.118,-0.034l0.118,-0.031l0.119,-0.029l0.06,-0.013l0.06,-0.012l0.06,-0.012l0.06,-0.011l0.061,-0.01l0.06,-0.009l0.061,-0.009l0.061,-0.008l0.061,-0.007l0.061,-0.007l0.062,-0.005l0.061,-0.005l0.062,-0.004l0.062,-0.004l0.062,-0.003l0.062,-0.001l0.062,-0.002l0.062,0l16.666,0l0.062,0Zm-16.719,3l-0.034,0l-0.025,0.001l-0.024,0l-0.026,0.002l-0.025,0.001l-0.024,0.002l-0.024,0.002l-0.025,0.002l-0.025,0.002l-0.024,0.003l-0.024,0.003l-0.025,0.004l-0.024,0.004l-0.024,0.004l-0.024,0.004l-0.024,0.005l-0.024,0.005l-0.016,0.003l-0.056,0.014l-0.047,0.012l-0.047,0.014l-0.046,0.014l-0.047,0.016l-0.045,0.017l-0.046,0.018l-0.044,0.02l-0.045,0.02l-0.044,0.021l-0.043,0.023l-0.043,0.023l-0.042,0.025l-0.049,0.03l-0.013,0.008l-0.021,0.014l-0.02,0.014l-0.02,0.014l-0.02,0.014l-0.02,0.015l-0.02,0.014l-0.019,0.015l-0.02,0.016l-0.019,0.015l-0.018,0.015l-0.019,0.017l-0.019,0.016l-0.019,0.017l-0.018,0.016l-0.018,0.017l-0.018,0.018l-0.018,0.017l-0.017,0.017l-0.017,0.019l-0.017,0.018l-0.017,0.018l-0.016,0.018l-0.016,0.019l-0.017,0.019l-0.016,0.019l-0.015,0.019l-0.015,0.019l-0.015,0.019l-0.015,0.02l-0.014,0.02l-0.015,0.02l-0.014,0.02l-0.013,0.02l-0.014,0.021l-0.008,0.013l-0.03,0.049l-0.025,0.042l-0.023,0.043l-0.023,0.044l-0.021,0.044l-0.021,0.044l-0.019,0.045l-0.018,0.045l-0.017,0.046l-0.016,0.046l-0.015,0.046l-0.013,0.047l-0.013,0.048l-0.013,0.056l-0.004,0.015l-0.005,0.024l-0.004,0.024l-0.004,0.024l-0.005,0.024l-0.003,0.025l-0.004,0.024l-0.003,0.024l-0.003,0.025l-0.002,0.024l-0.003,0.025l-0.002,0.025l-0.001,0.024l-0.002,0.025l-0.001,0.025l-0.001,0.024l0,0.025l0,0.034l0,21.658l-0.015,0.294l-0.043,0.291l-0.072,0.286l-0.099,0.277l-0.126,0.266l-0.151,0.252l-0.175,0.237l-0.198,0.218l-0.218,0.198l-0.237,0.175l-0.252,0.151l-0.266,0.126l-0.277,0.099l-0.286,0.072l-0.291,0.043l-0.294,0.015l-21.657,0l-0.034,0l-0.026,0l-0.025,0.001l-0.024,0.001l-0.025,0.002l-0.025,0.001l-0.025,0.002l-0.023,0.002l-0.025,0.003l-0.025,0.003l-0.024,0.003l-0.024,0.004l-0.025,0.003l-0.024,0.004l-0.024,0.005l-0.024,0.005l-0.024,0.004l-0.015,0.004l-0.056,0.013l-0.048,0.013l-0.046,0.013l-0.047,0.015l-0.046,0.016l-0.046,0.017l-0.045,0.018l-0.045,0.019l-0.045,0.021l-0.043,0.021l-0.044,0.023l-0.042,0.023l-0.043,0.024l-0.049,0.031l-0.014,0.009l-0.02,0.013l-0.02,0.014l-0.02,0.013l-0.02,0.015l-0.02,0.014l-0.019,0.015l-0.02,0.015l-0.019,0.015l-0.02,0.016l-0.018,0.015l-0.019,0.016l-0.019,0.017l-0.018,0.016l-0.018,0.017l-0.019,0.017l-0.018,0.017l-0.017,0.017l-0.018,0.018l-0.017,0.018l-0.017,0.018l-0.017,0.019l-0.016,0.018l-0.016,0.018l-0.016,0.019l-0.016,0.019l-0.016,0.02l-0.015,0.019l-0.015,0.019l-0.015,0.02l-0.014,0.019l-0.014,0.02l-0.014,0.021l-0.014,0.02l-0.013,0.021l-0.009,0.012l-0.03,0.05l-0.025,0.042l-0.023,0.043l-0.023,0.043l-0.021,0.044l-0.02,0.045l-0.02,0.044l-0.018,0.046l-0.017,0.045l-0.016,0.047l-0.014,0.046l-0.014,0.047l-0.012,0.047l-0.014,0.057l-0.003,0.015l-0.005,0.024l-0.005,0.024l-0.004,0.024l-0.004,0.024l-0.004,0.024l-0.004,0.025l-0.003,0.024l-0.003,0.024l-0.002,0.025l-0.002,0.024l-0.002,0.025l-0.002,0.025l-0.001,0.024l-0.002,0.025l0,0.025l-0.001,0.025l0,0.034l0,16.648l0,0.034l0.001,0.025l0,0.025l0.002,0.025l0.001,0.024l0.002,0.025l0.002,0.025l0.002,0.024l0.002,0.025l0.003,0.024l0.003,0.024l0.004,0.025l0.004,0.024l0.004,0.024l0.004,0.024l0.005,0.024l0.005,0.024l0.003,0.015l0.014,0.057l0.012,0.047l0.014,0.047l0.014,0.046l0.016,0.047l0.017,0.045l0.018,0.046l0.02,0.044l0.02,0.045l0.021,0.044l0.023,0.043l0.023,0.043l0.025,0.042l0.03,0.05l0.009,0.012l0.013,0.021l0.014,0.02l0.014,0.021l0.014,0.02l0.014,0.019l0.015,0.02l0.015,0.019l0.015,0.019l0.016,0.02l0.016,0.019l0.016,0.019l0.016,0.018l0.016,0.018l0.017,0.019l0.017,0.018l0.017,0.018l0.018,0.018l0.017,0.017l0.018,0.017l0.019,0.017l0.018,0.017l0.018,0.016l0.019,0.017l0.019,0.016l0.018,0.015l0.02,0.016l0.019,0.015l0.02,0.015l0.019,0.015l0.02,0.014l0.02,0.015l0.02,0.013l0.02,0.014l0.02,0.013l0.014,0.009l0.049,0.031l0.043,0.024l0.042,0.023l0.044,0.023l0.043,0.021l0.045,0.021l0.045,0.019l0.045,0.018l0.046,0.017l0.046,0.016l0.047,0.015l0.046,0.013l0.048,0.013l0.056,0.013l0.015,0.004l0.024,0.004l0.024,0.005l0.024,0.005l0.024,0.004l0.025,0.003l0.024,0.004l0.024,0.003l0.025,0.003l0.025,0.003l0.023,0.002l0.025,0.002l0.025,0.001l0.025,0.002l0.024,0.001l0.025,0.001l0.026,0l0.034,0l21.657,0l0.294,0.015l0.291,0.043l0.286,0.072l0.277,0.099l0.266,0.126l0.252,0.151l0.237,0.175l0.218,0.198l0.198,0.218l0.175,0.237l0.151,0.252l0.126,0.266l0.099,0.277l0.072,0.286l0.043,0.291l0.015,0.294l0,21.658l0,0.034l0,0.025l0.001,0.024l0.001,0.025l0.002,0.025l0.001,0.024l0.002,0.025l0.003,0.025l0.002,0.024l0.003,0.025l0.003,0.024l0.004,0.024l0.003,0.025l0.005,0.024l0.004,0.024l0.004,0.024l0.005,0.024l0.004,0.015l0.013,0.056l0.013,0.048l0.013,0.047l0.015,0.046l0.016,0.046l0.017,0.046l0.018,0.045l0.019,0.045l0.021,0.044l0.021,0.044l0.023,0.044l0.023,0.043l0.025,0.042l0.03,0.049l0.008,0.013l0.014,0.021l0.013,0.02l0.014,0.02l0.015,0.02l0.014,0.02l0.015,0.02l0.015,0.019l0.015,0.019l0.015,0.019l0.016,0.019l0.017,0.019l0.016,0.019l0.016,0.018l0.017,0.018l0.017,0.018l0.017,0.019l0.017,0.017l0.018,0.018l0.018,0.017l0.018,0.017l0.018,0.016l0.019,0.017l0.019,0.016l0.019,0.017l0.018,0.015l0.019,0.015l0.02,0.016l0.019,0.015l0.02,0.014l0.02,0.015l0.02,0.014l0.02,0.014l0.02,0.014l0.021,0.014l0.013,0.008l0.049,0.03l0.042,0.025l0.043,0.023l0.043,0.023l0.044,0.021l0.045,0.02l0.044,0.02l0.046,0.018l0.045,0.017l0.047,0.016l0.046,0.014l0.047,0.014l0.047,0.012l0.056,0.014l0.016,0.003l0.024,0.005l0.024,0.005l0.024,0.004l0.024,0.004l0.024,0.004l0.025,0.004l0.024,0.003l0.024,0.003l0.025,0.002l0.025,0.002l0.024,0.002l0.024,0.002l0.025,0.001l0.026,0.002l0.024,0l0.025,0.001l0.034,0l16.648,0l0.034,0l0.025,-0.001l0.024,0l0.026,-0.002l0.025,-0.001l0.024,-0.002l0.024,-0.002l0.025,-0.002l0.025,-0.002l0.024,-0.003l0.024,-0.003l0.025,-0.004l0.024,-0.004l0.024,-0.004l0.024,-0.004l0.024,-0.005l0.024,-0.005l0.016,-0.003l0.056,-0.014l0.047,-0.012l0.047,-0.014l0.046,-0.014l0.047,-0.016l0.045,-0.017l0.046,-0.018l0.044,-0.02l0.045,-0.02l0.044,-0.021l0.043,-0.023l0.043,-0.023l0.042,-0.025l0.049,-0.03l0.013,-0.008l0.021,-0.014l0.02,-0.014l0.02,-0.014l0.02,-0.014l0.02,-0.015l0.02,-0.014l0.019,-0.015l0.02,-0.016l0.019,-0.015l0.018,-0.015l0.019,-0.017l0.019,-0.016l0.019,-0.017l0.018,-0.016l0.018,-0.017l0.018,-0.018l0.018,-0.017l0.017,-0.017l0.017,-0.019l0.017,-0.018l0.017,-0.018l0.016,-0.018l0.016,-0.019l0.017,-0.019l0.016,-0.019l0.015,-0.019l0.015,-0.019l0.015,-0.019l0.015,-0.02l0.014,-0.02l0.015,-0.02l0.014,-0.02l0.013,-0.02l0.014,-0.021l0.008,-0.013l0.03,-0.049l0.025,-0.042l0.023,-0.043l0.023,-0.044l0.021,-0.044l0.021,-0.044l0.019,-0.045l0.018,-0.045l0.017,-0.046l0.016,-0.046l0.015,-0.046l0.013,-0.047l0.013,-0.048l0.013,-0.056l0.004,-0.015l0.005,-0.024l0.004,-0.024l0.004,-0.024l0.005,-0.024l0.003,-0.025l0.004,-0.024l0.003,-0.024l0.003,-0.025l0.002,-0.024l0.003,-0.025l0.002,-0.025l0.001,-0.024l0.002,-0.025l0.001,-0.025l0.001,-0.024l0,-0.025l0,-0.034l0,-21.658l0.015,-0.294l0.043,-0.291l0.072,-0.286l0.099,-0.277l0.126,-0.266l0.151,-0.252l0.175,-0.237l0.198,-0.218l0.218,-0.198l0.237,-0.175l0.252,-0.151l0.266,-0.126l0.277,-0.099l0.286,-0.072l0.291,-0.043l0.294,-0.015l19.912,0l0.034,0l0.026,0l0.024,-0.001l0.025,-0.001l0.024,-0.002l0.025,-0.001l0.025,-0.002l0.024,-0.002l0.024,-0.003l0.025,-0.003l0.024,-0.003l0.024,-0.004l0.026,-0.003l0.023,-0.004l0.024,-0.005l0.025,-0.005l0.023,-0.004l0.015,-0.004l0.057,-0.013l0.047,-0.013l0.047,-0.013l0.047,-0.015l0.046,-0.016l0.045,-0.017l0.046,-0.018l0.045,-0.019l0.044,-0.021l0.044,-0.021l0.043,-0.023l0.043,-0.023l0.042,-0.024l0.05,-0.031l0.013,-0.008l0.02,-0.014l0.021,-0.014l0.019,-0.013l0.02,-0.015l0.02,-0.014l0.02,-0.015l0.02,-0.015l0.019,-0.015l0.019,-0.016l0.019,-0.015l0.019,-0.016l0.018,-0.017l0.019,-0.016l0.018,-0.017l0.018,-0.017l0.018,-0.017l0.017,-0.017l0.018,-0.018l0.018,-0.018l0.017,-0.018l0.016,-0.019l0.016,-0.018l0.017,-0.018l0.016,-0.019l0.016,-0.019l0.015,-0.02l0.015,-0.019l0.015,-0.019l0.015,-0.02l0.014,-0.019l0.015,-0.02l0.014,-0.021l0.014,-0.02l0.013,-0.021l0.008,-0.012l0.03,-0.05l0.025,-0.042l0.024,-0.043l0.022,-0.043l0.022,-0.044l0.02,-0.045l0.019,-0.045l0.018,-0.045l0.017,-0.045l0.016,-0.047l0.015,-0.046l0.014,-0.047l0.012,-0.047l0.013,-0.057l0.004,-0.015l0.005,-0.024l0.004,-0.024l0.005,-0.024l0.004,-0.024l0.004,-0.024l0.003,-0.025l0.003,-0.024l0.003,-0.024l0.003,-0.025l0.002,-0.024l0.002,-0.025l0.002,-0.025l0.001,-0.024l0.001,-0.025l0.001,-0.025l0,-0.025l0.001,-0.034l0,-16.648l-0.001,-0.034l0,-0.025l-0.001,-0.025l-0.001,-0.025l-0.001,-0.024l-0.002,-0.025l-0.002,-0.025l-0.002,-0.024l-0.003,-0.025l-0.003,-0.024l-0.003,-0.024l-0.003,-0.025l-0.004,-0.024l-0.004,-0.024l-0.005,-0.024l-0.004,-0.024l-0.005,-0.024l-0.004,-0.015l-0.013,-0.057l-0.012,-0.047l-0.014,-0.047l-0.015,-0.046l-0.016,-0.047l-0.017,-0.045l-0.018,-0.045l-0.019,-0.045l-0.02,-0.045l-0.022,-0.044l-0.022,-0.043l-0.024,-0.043l-0.025,-0.042l-0.03,-0.05l-0.008,-0.012l-0.013,-0.021l-0.014,-0.02l-0.014,-0.021l-0.015,-0.02l-0.014,-0.019l-0.015,-0.02l-0.015,-0.019l-0.015,-0.019l-0.015,-0.02l-0.016,-0.019l-0.016,-0.019l-0.017,-0.018l-0.016,-0.018l-0.016,-0.019l-0.017,-0.018l-0.018,-0.018l-0.018,-0.018l-0.017,-0.017l-0.018,-0.017l-0.018,-0.017l-0.018,-0.017l-0.019,-0.016l-0.018,-0.017l-0.019,-0.016l-0.019,-0.015l-0.019,-0.016l-0.019,-0.015l-0.02,-0.015l-0.02,-0.015l-0.02,-0.014l-0.02,-0.015l-0.019,-0.013l-0.021,-0.014l-0.02,-0.014l-0.013,-0.008l-0.05,-0.031l-0.042,-0.024l-0.043,-0.023l-0.043,-0.023l-0.044,-0.021l-0.044,-0.021l-0.045,-0.019l-0.046,-0.018l-0.045,-0.017l-0.046,-0.016l-0.047,-0.015l-0.047,-0.013l-0.047,-0.013l-0.057,-0.013l-0.015,-0.004l-0.023,-0.004l-0.025,-0.005l-0.024,-0.005l-0.023,-0.004l-0.026,-0.003l-0.024,-0.004l-0.024,-0.003l-0.025,-0.003l-0.024,-0.003l-0.024,-0.002l-0.025,-0.002l-0.025,-0.001l-0.024,-0.002l-0.025,-0.001l-0.024,-0.001l-0.026,0l-0.034,0l-19.912,0l-0.294,-0.015l-0.291,-0.043l-0.286,-0.072l-0.277,-0.099l-0.266,-0.126l-0.252,-0.151l-0.237,-0.175l-0.218,-0.198l-0.198,-0.218l-0.175,-0.237l-0.151,-0.252l-0.126,-0.266l-0.099,-0.277l-0.072,-0.286l-0.043,-0.291l-0.015,-0.294l0,-21.658l0,-0.034l0,-0.025l-0.001,-0.024l-0.001,-0.025l-0.002,-0.025l-0.001,-0.024l-0.002,-0.025l-0.003,-0.025l-0.002,-0.024l-0.003,-0.025l-0.003,-0.024l-0.004,-0.024l-0.003,-0.025l-0.005,-0.024l-0.004,-0.024l-0.004,-0.024l-0.005,-0.024l-0.004,-0.015l-0.013,-0.056l-0.013,-0.048l-0.013,-0.047l-0.015,-0.046l-0.016,-0.046l-0.017,-0.046l-0.018,-0.045l-0.019,-0.045l-0.021,-0.044l-0.021,-0.044l-0.023,-0.044l-0.023,-0.043l-0.025,-0.042l-0.03,-0.049l-0.008,-0.013l-0.014,-0.021l-0.013,-0.02l-0.014,-0.02l-0.015,-0.02l-0.014,-0.02l-0.015,-0.02l-0.015,-0.019l-0.015,-0.019l-0.015,-0.019l-0.016,-0.019l-0.017,-0.019l-0.016,-0.019l-0.016,-0.018l-0.017,-0.018l-0.017,-0.018l-0.017,-0.019l-0.017,-0.017l-0.018,-0.018l-0.018,-0.017l-0.018,-0.017l-0.018,-0.016l-0.019,-0.017l-0.019,-0.016l-0.019,-0.017l-0.018,-0.015l-0.019,-0.015l-0.02,-0.016l-0.019,-0.015l-0.02,-0.014l-0.02,-0.015l-0.02,-0.014l-0.02,-0.014l-0.02,-0.014l-0.021,-0.014l-0.013,-0.008l-0.049,-0.03l-0.042,-0.025l-0.043,-0.023l-0.043,-0.023l-0.044,-0.021l-0.045,-0.02l-0.044,-0.02l-0.046,-0.018l-0.045,-0.017l-0.047,-0.016l-0.046,-0.014l-0.047,-0.014l-0.047,-0.012l-0.056,-0.014l-0.016,-0.003l-0.024,-0.005l-0.024,-0.005l-0.024,-0.004l-0.024,-0.004l-0.024,-0.004l-0.025,-0.004l-0.024,-0.003l-0.024,-0.003l-0.025,-0.002l-0.025,-0.002l-0.024,-0.002l-0.024,-0.002l-0.025,-0.001l-0.026,-0.002l-0.024,0l-0.025,-0.001l-0.034,0l-16.648,0Z" style="fill:#fff1e8;"/><path d="M200,162.5c0,0 0,-15.298 0,-30.445c0,-16.323 -13.232,-29.555 -29.555,-29.555c-6.567,0 -13.713,0 -20.871,0c-13.528,0 -26.489,-5.435 -35.97,-15.084c-9.482,-9.648 -14.69,-22.702 -14.454,-36.227c0.429,-24.556 0.85,-48.689 0.85,-48.689" style="fill:none;stroke:#fff1e8;stroke-width:5px;"/><path d="M157.564,282.501l0.065,0.002l0.063,0.004l0.063,0.006l0.063,0.007l0.063,0.009l0.061,0.01l0.062,0.012l0.06,0.013l0.06,0.015l0.06,0.016l0.059,0.017l0.058,0.019l0.058,0.021l0.057,0.022l0.057,0.023l0.055,0.024l0.055,0.026l0.055,0.027l0.053,0.028l0.053,0.029l0.052,0.031l0.051,0.032l0.05,0.033l0.05,0.034l0.048,0.036l0.048,0.037l0.047,0.037l0.046,0.039l0.045,0.04l0.043,0.041l0.043,0.042l0.042,0.043l0.041,0.043l0.04,0.045l0.039,0.046l0.037,0.047l0.037,0.048l0.036,0.048l0.034,0.05l0.033,0.05l0.032,0.051l0.031,0.052l0.029,0.053l0.028,0.053l0.027,0.055l0.026,0.055l0.024,0.055l0.023,0.057l0.022,0.057l0.021,0.058l0.019,0.058l0.017,0.059l0.016,0.06l0.015,0.06l0.013,0.06l0.012,0.062l0.01,0.061l0.009,0.063l0.007,0.063l0.006,0.063l0.004,0.063l0.002,0.065l0.001,0.064l0,5l-0.001,0.064l-0.002,0.065l-0.004,0.063l-0.006,0.063l-0.007,0.063l-0.009,0.063l-0.01,0.061l-0.012,0.062l-0.013,0.06l-0.015,0.06l-0.016,0.06l-0.017,0.059l-0.019,0.058l-0.021,0.058l-0.022,0.057l-0.023,0.057l-0.024,0.055l-0.026,0.055l-0.027,0.055l-0.028,0.053l-0.029,0.053l-0.031,0.052l-0.032,0.051l-0.033,0.05l-0.034,0.05l-0.036,0.048l-0.037,0.048l-0.037,0.047l-0.039,0.046l-0.04,0.045l-0.041,0.043l-0.042,0.043l-0.043,0.042l-0.043,0.041l-0.045,0.04l-0.046,0.039l-0.047,0.037l-0.048,0.037l-0.048,0.036l-0.05,0.034l-0.05,0.033l-0.051,0.032l-0.052,0.031l-0.053,0.029l-0.053,0.028l-0.055,0.027l-0.055,0.026l-0.055,0.024l-0.057,0.023l-0.057,0.022l-0.058,0.021l-0.058,0.019l-0.059,0.017l-0.06,0.016l-0.06,0.015l-0.06,0.013l-0.062,0.012l-0.061,0.01l-0.063,0.009l-0.063,0.007l-0.063,0.006l-0.063,0.004l-0.065,0.002l-0.064,0.001l-15,0l-0.064,-0.001l-0.065,-0.002l-0.063,-0.004l-0.063,-0.006l-0.063,-0.007l-0.063,-0.009l-0.061,-0.01l-0.062,-0.012l-0.06,-0.013l-0.06,-0.015l-0.06,-0.016l-0.059,-0.017l-0.058,-0.019l-0.058,-0.021l-0.057,-0.022l-0.057,-0.023l-0.055,-0.024l-0.055,-0.026l-0.055,-0.027l-0.053,-0.028l-0.053,-0.029l-0.052,-0.031l-0.051,-0.032l-0.05,-0.033l-0.05,-0.034l-0.048,-0.036l-0.048,-0.037l-0.047,-0.037l-0.046,-0.039l-0.045,-0.04l-0.043,-0.041l-0.043,-0.042l-0.042,-0.043l-0.041,-0.043l-0.04,-0.045l-0.039,-0.046l-0.037,-0.047l-0.037,-0.048l-0.036,-0.048l-0.034,-0.05l-0.033,-0.05l-0.032,-0.051l-0.031,-0.052l-0.029,-0.053l-0.028,-0.053l-0.027,-0.055l-0.026,-0.055l-0.024,-0.055l-0.023,-0.057l-0.022,-0.057l-0.021,-0.058l-0.019,-0.058l-0.017,-0.059l-0.016,-0.06l-0.015,-0.06l-0.013,-0.06l-0.012,-0.062l-0.01,-0.061l-0.009,-0.063l-0.007,-0.063l-0.006,-0.063l-0.004,-0.063l-0.002,-0.065l-0.001,-0.064l0,-5l0.001,-0.064l0.002,-0.065l0.004,-0.063l0.006,-0.063l0.007,-0.063l0.009,-0.063l0.01,-0.061l0.012,-0.062l0.013,-0.06l0.015,-0.06l0.016,-0.06l0.017,-0.059l0.019,-0.058l0.021,-0.058l0.022,-0.057l0.023,-0.057l0.024,-0.055l0.026,-0.055l0.027,-0.055l0.028,-0.053l0.029,-0.053l0.031,-0.052l0.032,-0.051l0.033,-0.05l0.034,-0.05l0.036,-0.048l0.037,-0.048l0.037,-0.047l0.039,-0.046l0.04,-0.045l0.041,-0.043l0.042,-0.043l0.043,-0.042l0.043,-0.041l0.045,-0.04l0.046,-0.039l0.047,-0.037l0.048,-0.037l0.048,-0.036l0.05,-0.034l0.05,-0.033l0.051,-0.032l0.052,-0.031l0.053,-0.029l0.053,-0.028l0.055,-0.027l0.055,-0.026l0.055,-0.024l0.057,-0.023l0.057,-0.022l0.058,-0.021l0.058,-0.019l0.059,-0.017l0.06,-0.016l0.06,-0.015l0.06,-0.013l0.062,-0.012l0.061,-0.01l0.063,-0.009l0.063,-0.007l0.063,-0.006l0.063,-0.004l0.065,-0.002l0.064,-0.001l15,0l0.064,0.001Zm-14.564,2.999l0,4l14,0l0,-4l-14,0Z" style="fill:#fff1e8;"/></svg>