<?xml version="1.0" encoding="UTF-8" standalone="no"?><!DOCTYPE svg PUBLIC "-//W3C//DTD SVG 1.1//EN" "http://www.w3.org/Graphics/SVG/1.1/DTD/svg11.dtd"><svg width="100%" height="100%" viewBox="0 0 370 100" version="1.1" xmlns="http://www.w3.org/2000/svg" xmlns:xlink="http://www.w3.org/1999/xlink" xml:space="preserve" style="fill-rule:evenodd;clip-rule:evenodd;stroke-linejoin:round;stroke-miterlimit:1.41421;"><g><path d="M20,10c0,-5.523 4.477,-10 10,-10c12.469,0 34.08,0 50,0c5.304,0 10.391,2.107 14.142,5.858c3.751,3.751 5.858,8.838 5.858,14.142c0,6.436 0,13.564 0,20c0,11.046 -8.954,20 -20,20c-12.398,0 -27.37,0 -35,0c-2.761,0 -5,2.239 -5,5c0,7.685 0,22.315 0,30c0,2.761 -2.239,5 -5,5c-7.685,0 -22.315,0 -30,0c-1.326,0 -2.598,-0.527 -3.536,-1.464c-0.937,-0.938 -1.464,-2.21 -1.464,-3.536c0,-12.943 0,-47.735 0,-65c0,-5.523 4.477,-10 10,-10c1.736,0 3.473,0 5,0c2.761,0 5,-2.239 5,-5c0,-1.527 0,-3.264 0,-5Zm25,10c-2.761,0 -5,2.239 -5,5c0,3.054 0,6.946 0,10c0,2.761 2.239,5 5,5c3.054,0 6.946,0 10,0c2.761,0 5,-2.239 5,-5c0,-3.054 0,-6.946 0,-10c0,-2.761 -2.239,-5 -5,-5c-3.054,0 -6.946,0 -10,0Z"/><path d="M110,5c0,-2.761 2.239,-5 5,-5c7.63,0 22.602,0 35,0c5.304,0 10.391,2.107 14.142,5.858c3.751,3.751 5.858,8.838 5.858,14.142c0,18.34 0,44.232 0,55c0,2.761 2.239,5 5,5c3.054,0 6.946,0 10,0c2.761,0 5,2.239 5,5c0,3.054 0,6.946 0,10c0,2.761 -2.239,5 -5,5c-14.364,0 -55.636,0 -70,0c-2.761,0 -5,-2.239 -5,-5c0,-3.054 0,-6.946 0,-10c0,-2.761 2.239,-5 5,-5c3.054,0 6.946,0 10,0c2.761,0 5,-2.239 5,-5c0,-11.3 0,-38.7 0,-50c0,-2.761 -2.239,-5 -5,-5c-3.054,0 -6.946,0 -10,0c-2.761,0 -5,-2.239 -5,-5c0,-3.054 0,-6.946 0,-10Z"/><path d="M200,60c0,-11.046 8.954,-20 20,-20c5.579,0 11.157,0 15,0c2.761,0 5,-2.239 5,-5c0,-3.054 0,-6.946 0,-10c0,-2.761 -2.239,-5 -5,-5c-7.685,0 -22.315,0 -30,0c-2.761,0 -5,-2.239 -5,-5c0,-3.054 0,-6.946 0,-10c0,-2.761 2.239,-5 5,-5l55.002,0c5.304,0 10.39,2.107 14.141,5.857c3.75,3.751 5.857,8.837 5.857,14.141l0,20.002c0,11.046 -8.954,20 -20,20c-5.579,0 -11.157,0 -15,0c-2.761,0 -5,2.239 -5,5c0,3.054 0,6.946 0,10c0,2.761 2.239,5 5,5c7.685,0 22.315,0 30,0c2.761,0 5,2.239 5,5c0,3.054 0,6.946 0,10c0,2.761 -2.239,5 -5,5c-14.364,0 -55.636,0 -70,0c-2.761,0 -5,-2.239 -5,-5c0,-7.63 0,-22.602 0,-35Z"/><path d="M310,100c-5.304,0 -10.391,-2.107 -14.142,-5.858c-3.751,-3.751 -5.858,-8.838 -5.858,-14.142c0,-17.428 0,-42.572 0,-60c0,-11.046 8.954,-20 20,-20c10.074,0 21.847,0 30,0c5.523,0 10,4.477 10,10c0,1.736 0,3.473 0,5c0,2.761 2.239,5 5,5c1.527,0 3.264,0 5,0c5.523,0 10,4.477 10,10c0,12.469 0,34.08 0,50c0,5.304 -2.107,10.391 -5.858,14.142c-3.751,3.751 -8.838,5.858 -14.142,5.858c-12.216,0 -27.784,0 -40,0Zm5,-40c-2.761,0 -5,2.239 -5,5c0,3.054 0,6.946 0,10c0,2.761 2.239,5 5,5c3.054,0 6.946,0 10,0c2.761,0 5,-2.239 5,-5c0,-3.054 0,-6.946 0,-10c0,-2.761 -2.239,-5 -5,-5c-3.054,0 -6.946,0 -10,0Zm0,-40c-2.761,0 -5,2.239 -5,5c0,3.054 0,6.946 0,10c0,2.761 2.239,5 5,5c3.054,0 6.946,0 10,0c2.761,0 5,-2.239 5,-5c0,-3.054 0,-6.946 0,-10c0,-2.761 -2.239,-5 -5,-5c-3.054,0 -6.946,0 -10,0Z"/></g></svg>