<?xml version="1.0" encoding="UTF-8" standalone="no"?><!DOCTYPE svg PUBLIC "-//W3C//DTD SVG 1.1//EN" "http://www.w3.org/Graphics/SVG/1.1/DTD/svg11.dtd"><svg width="100%" height="100%" viewBox="0 0 297 285" version="1.1" xmlns="http://www.w3.org/2000/svg" xmlns:xlink="http://www.w3.org/1999/xlink" xml:space="preserve" style="fill-rule:evenodd;clip-rule:evenodd;stroke-linecap:round;stroke-linejoin:round;stroke-miterlimit:1.5;"><circle cx="262.806" cy="250.5" r="5" style="fill:#fff1e8;"/><path d="M3.806,92.5l50,-50" style="fill:none;stroke:#fff1e8;stroke-width:3px;"/><path d="M293.806,26.5c0,-13.246 -10.755,-24 -24,-24l-192,0c-13.246,0 -24,10.754 -24,24l0,232c0,13.246 10.754,24 24,24l192,0c13.245,0 24,-10.754 24,-24l0,-232Z" style="fill:none;stroke:#fff1e8;stroke-width:5px;"/><path d="M53.806,258.5c0,13.246 10.753,23.999 24,24l-53.99,0c-11.765,0 -21.316,-9.551 -21.316,-21.316l0,-170.526c0,-11.764 0.4,-17.164 11.306,-31.158l47,-50" style="fill:none;stroke:#fff1e8;stroke-width:5px;"/><path d="M83.806,241.5l80,0" style="fill:none;stroke:#fff1e8;stroke-width:3px;"/><path d="M83.806,251.5l80,0" style="fill:none;stroke:#fff1e8;stroke-width:3px;"/><path d="M83.806,261.5l80,0" style="fill:none;stroke:#fff1e8;stroke-width:3px;"/><path d="M2.5,262.5l51.306,0" style="fill:none;stroke:#fff1e8;stroke-width:3px;"/></svg>